<?xml version="1.0" encoding="iso-8859-1"?>
<!-- Generator: Adobe Illustrator 19.0.0, SVG Export Plug-In . SVG Version: 6.00 Build 0)  -->
<svg version="1.1" id="Capa_1" xmlns="http://www.w3.org/2000/svg" xmlns:xlink="http://www.w3.org/1999/xlink" x="0px" y="0px"
	 viewBox="0 0 512 512" style="enable-background:new 0 0 512 512;" xml:space="preserve">
<linearGradient id="SVGID_1_" gradientUnits="userSpaceOnUse" x1="250.9138" y1="263.4382" x2="622.0438" y2="-107.7018" gradientTransform="matrix(1.0039 0 0 -1.0039 0.1922 516.5609)">
	<stop  offset="0" style="stop-color:#E6E6E6"/>
	<stop  offset="1" style="stop-color:#999999"/>
</linearGradient>
<path style="fill:url(#SVGID_1_);" d="M511.769,245.145c-0.023-0.776-0.058-1.551-0.104-2.315c-0.046-1.03-0.104-2.048-0.174-3.079
	c-0.012-0.151-0.023-0.301-0.035-0.451c-0.058-0.972-0.128-1.956-0.208-2.928c-0.046-0.752-0.104-1.505-0.185-2.257
	c-0.058-0.798-0.128-1.597-0.209-2.384c0-0.104-0.012-0.197-0.023-0.289c-0.092-0.972-0.185-1.933-0.289-2.893
	c-0.092-0.903-0.197-1.805-0.301-2.709c-0.034-0.324-0.081-0.649-0.115-0.961c-0.092-0.775-0.197-1.551-0.301-2.326
	c-0.128-0.996-0.255-1.991-0.406-2.986c-0.139-0.984-0.289-1.979-0.44-2.963c-0.452-2.975-0.961-5.914-1.528-8.842
	c-0.741-3.912-1.574-7.789-2.5-11.619c-0.232-0.961-0.463-1.922-0.706-2.881c-0.475-1.909-0.984-3.808-1.505-5.706
	c-0.532-1.897-1.076-3.785-1.643-5.659c-0.278-0.938-0.567-1.874-0.868-2.812c-0.289-0.926-0.59-1.863-0.891-2.789
	c-1.497-4.574-3.128-9.086-4.872-13.544c-0.028-0.072-0.053-0.146-0.081-0.217l-0.005,0.002
	c-23.465-59.82-68.8-108.666-126.167-136.681v-0.001c-0.009-0.005-0.019-0.009-0.028-0.014c-2.108-1.03-4.23-2.035-6.372-3.007
	c-1.076-0.486-2.152-0.972-3.241-1.447c-0.023,0-0.046-0.012-0.069-0.035c-2.141-0.938-4.294-1.852-6.469-2.72
	c-2.199-0.903-4.409-1.759-6.643-2.581c-4.363-1.631-8.795-3.148-13.263-4.537c-0.081-0.023-0.174-0.046-0.266-0.081
	c-2.28-0.718-4.583-1.388-6.886-2.025c-2.315-0.648-4.629-1.262-6.967-1.84c-4.467-1.122-8.992-2.117-13.552-2.986
	c-1.585-0.301-3.171-0.59-4.769-0.856c-0.938-0.174-1.875-0.324-2.812-0.475c-0.139-0.023-0.278-0.046-0.417-0.069
	c-0.902-0.139-1.817-0.278-2.732-0.417c-2.65-0.394-5.301-0.741-7.985-1.053c-2.257-0.266-4.525-0.498-6.805-0.695
	c-1.076-0.104-2.164-0.185-3.252-0.266c-0.915-0.081-1.84-0.139-2.755-0.197c-0.266-0.023-0.532-0.035-0.798-0.058
	c-0.879-0.046-1.748-0.104-2.627-0.139c-0.926-0.057-1.863-0.104-2.801-0.139c-0.706-0.023-1.412-0.058-2.118-0.081
	c-0.938-0.023-1.875-0.057-2.812-0.069c-0.821-0.023-1.643-0.034-2.465-0.046C258.211,0.012,257.099,0,256,0
	c-1.099,0-2.211,0.012-3.31,0.023c-0.822,0.012-1.643,0.023-2.465,0.046c-0.938,0.012-1.875,0.046-2.812,0.069
	c-0.706,0.023-1.412,0.058-2.118,0.081c-0.938,0.035-1.875,0.081-2.801,0.139c-0.879,0.035-1.748,0.092-2.627,0.139
	c-0.266,0.023-0.532,0.035-0.798,0.058c-0.915,0.058-1.84,0.115-2.755,0.197c-1.088,0.081-2.176,0.162-3.252,0.266
	c-2.28,0.197-4.549,0.429-6.805,0.695c-2.686,0.312-5.335,0.66-7.985,1.053c-0.915,0.139-1.828,0.278-2.732,0.417
	c-0.139,0.023-0.278,0.046-0.417,0.069c-0.938,0.151-1.875,0.301-2.812,0.475c-1.597,0.266-3.182,0.555-4.769,0.856
	c-4.56,0.868-9.084,1.863-13.552,2.986c-2.338,0.578-4.652,1.193-6.967,1.84c-2.303,0.636-4.606,1.308-6.886,2.025
	c-0.092,0.035-0.185,0.058-0.266,0.081c-4.467,1.388-8.9,2.905-13.263,4.537c-2.234,0.821-4.444,1.679-6.643,2.581
	c-2.176,0.868-4.328,1.782-6.469,2.72c-0.023,0.023-0.046,0.035-0.069,0.035c-1.088,0.475-2.164,0.961-3.241,1.447
	c-2.14,0.973-4.263,1.978-6.371,3.007c-0.009,0.005-0.019,0.009-0.029,0.014v0.001C86.42,53.869,41.085,102.717,17.62,162.537
	l-0.005-0.002c-0.028,0.071-0.053,0.145-0.081,0.217c-1.744,4.456-3.375,8.969-4.872,13.544c-0.301,0.926-0.601,1.863-0.891,2.789
	c-0.301,0.938-0.59,1.874-0.868,2.812c-0.567,1.874-1.111,3.762-1.643,5.659c-0.521,1.898-1.03,3.797-1.505,5.706
	c-0.243,0.961-0.475,1.922-0.706,2.881c-0.926,3.831-1.759,7.708-2.5,11.619c-0.567,2.928-1.076,5.868-1.528,8.842
	c-0.151,0.984-0.301,1.979-0.44,2.963c-0.151,0.995-0.278,1.991-0.406,2.986c-0.104,0.775-0.208,1.551-0.301,2.326
	c-0.035,0.312-0.081,0.636-0.115,0.961c-0.104,0.903-0.208,1.805-0.301,2.709c-0.104,0.961-0.197,1.922-0.289,2.893
	c-0.012,0.092-0.023,0.185-0.023,0.289c-0.081,0.787-0.151,1.585-0.208,2.384c-0.081,0.752-0.139,1.505-0.185,2.257
	c-0.081,0.972-0.151,1.956-0.208,2.928c-0.012,0.151-0.023,0.301-0.035,0.451c-0.069,1.03-0.127,2.048-0.174,3.079
	c-0.046,0.764-0.081,1.539-0.104,2.315C0.081,248.744,0,252.366,0,256c0,1.099,0.012,2.211,0.023,3.31
	c0.012,0.649,0.012,1.285,0.035,1.933c0.012,0.671,0.023,1.331,0.046,1.991c0.023,1.064,0.058,2.129,0.104,3.182
	c0.035,0.741,0.058,1.482,0.104,2.222c0.012,0.324,0.023,0.637,0.046,0.949c0.035,0.706,0.069,1.411,0.115,2.118
	c0.023,0.463,0.058,0.926,0.092,1.377c0.046,0.833,0.104,1.679,0.174,2.511c0.151,2.014,0.324,4.028,0.532,6.042
	c0.115,1.204,0.243,2.395,0.381,3.599c0.092,0.821,0.185,1.643,0.289,2.454c0.381,3.09,0.822,6.157,1.308,9.201
	c0.139,0.845,0.278,1.69,0.429,2.535c0,0.069,0.012,0.128,0.035,0.197c0.151,0.915,0.312,1.829,0.486,2.743
	c0.058,0.358,0.127,0.729,0.197,1.088c0.406,2.199,0.856,4.398,1.319,6.585c0.486,2.303,1.018,4.595,1.574,6.863
	c0.012,0.023,0.012,0.046,0.023,0.069c0.833,3.448,1.748,6.875,2.732,10.254c0.335,1.134,0.672,2.257,1.007,3.379
	c0.672,2.257,1.388,4.491,2.141,6.712c0.802,2.396,1.647,4.773,2.518,7.138c0.155,0.418,0.317,0.831,0.473,1.249
	c0.727,1.944,1.475,3.877,2.248,5.799c0.205,0.509,0.416,1.016,0.623,1.524c0.75,1.83,1.52,3.651,2.311,5.46
	c0.228,0.521,0.456,1.041,0.687,1.561c0.812,1.824,1.646,3.636,2.501,5.437c0.152,0.319,0.29,0.645,0.443,0.963l0.009-0.004
	c24.933,52.065,66.939,94.391,118.779,119.705l-0.001,0.001c0.017,0.008,0.034,0.016,0.051,0.024
	c2.101,1.026,4.215,2.027,6.349,2.997c1.076,0.486,2.152,0.972,3.241,1.447c0.023,0,0.046,0.012,0.069,0.035
	c2.141,0.938,4.294,1.852,6.469,2.72c2.199,0.902,4.409,1.759,6.643,2.581c4.363,1.631,8.795,3.148,13.263,4.537
	c0.081,0.023,0.174,0.046,0.266,0.081c2.28,0.718,4.583,1.388,6.886,2.025c2.315,0.648,4.629,1.261,6.967,1.84
	c4.467,1.122,8.992,2.118,13.552,2.986c1.585,0.301,3.171,0.59,4.769,0.856c0.938,0.174,1.875,0.324,2.812,0.475
	c0.139,0.023,0.278,0.046,0.417,0.069c0.903,0.139,1.817,0.278,2.732,0.417c2.65,0.394,5.301,0.741,7.985,1.053
	c2.257,0.266,4.525,0.498,6.805,0.695c1.076,0.104,2.164,0.185,3.252,0.266c0.915,0.081,1.84,0.139,2.755,0.197
	c0.266,0.023,0.532,0.035,0.798,0.058c0.879,0.046,1.748,0.104,2.627,0.139c0.926,0.057,1.863,0.104,2.801,0.139
	c0.706,0.023,1.412,0.058,2.118,0.081c0.938,0.023,1.875,0.057,2.812,0.069c0.821,0.023,1.643,0.034,2.465,0.046
	c1.099,0.012,2.211,0.023,3.31,0.023c1.099,0,2.211-0.012,3.31-0.023c0.822-0.012,1.643-0.023,2.465-0.046
	c0.938-0.012,1.875-0.046,2.812-0.069c0.706-0.023,1.412-0.058,2.118-0.081c0.938-0.035,1.875-0.081,2.801-0.139
	c0.879-0.035,1.748-0.092,2.627-0.139c0.266-0.023,0.532-0.035,0.798-0.058c0.915-0.058,1.84-0.115,2.755-0.197
	c1.088-0.081,2.175-0.163,3.252-0.266c2.28-0.197,4.549-0.429,6.805-0.695c2.685-0.312,5.335-0.66,7.985-1.053
	c0.915-0.139,1.828-0.278,2.732-0.417c0.139-0.023,0.278-0.046,0.417-0.069c0.938-0.151,1.875-0.301,2.812-0.475
	c1.597-0.266,3.182-0.555,4.769-0.856c4.56-0.868,9.084-1.863,13.552-2.986c2.338-0.578,4.652-1.192,6.967-1.84
	c2.303-0.637,4.606-1.308,6.886-2.025c0.092-0.035,0.185-0.058,0.266-0.081c4.467-1.388,8.9-2.905,13.263-4.537
	c2.234-0.821,4.444-1.679,6.643-2.581c1.099-0.452,2.188-0.903,3.276-1.354c0.486-0.197,0.972-0.405,1.447-0.613
	c0.601-0.266,1.215-0.532,1.817-0.787c1.088-0.475,2.164-0.961,3.241-1.447c2.036-0.925,4.052-1.883,6.059-2.86
	c0.112-0.055,0.228-0.106,0.341-0.161l-0.002-0.005c20.806-10.154,40.034-23.042,57.197-38.21
	c25.621-22.633,46.647-50.328,61.574-81.496l0.019,0.009c0.352-0.736,0.678-1.486,1.023-2.225c0.675-1.445,1.35-2.888,1.999-4.347
	c0.413-0.93,0.805-1.869,1.208-2.805c0.668-1.553,1.34-3.104,1.978-4.672c0.378-0.927,0.729-1.867,1.096-2.8
	c0.616-1.569,1.243-3.134,1.829-4.718c0.928-2.503,1.82-5.024,2.672-7.563c0.752-2.223,1.47-4.455,2.141-6.712
	c0.335-1.122,0.672-2.245,1.007-3.379c0.984-3.379,1.897-6.806,2.732-10.254c0.012-0.023,0.012-0.046,0.023-0.069
	c0.555-2.269,1.088-4.56,1.574-6.863c0.463-2.188,0.915-4.386,1.319-6.585c0.069-0.358,0.139-0.729,0.197-1.088
	c0.174-0.915,0.335-1.829,0.486-2.743c0.023-0.069,0.035-0.128,0.035-0.197c0.151-0.845,0.289-1.69,0.429-2.535
	c0.486-3.044,0.926-6.111,1.308-9.201c0.104-0.81,0.197-1.631,0.289-2.454c0.139-1.204,0.266-2.395,0.382-3.599
	c0.209-2.014,0.382-4.028,0.532-6.042c0.069-0.833,0.128-1.679,0.174-2.511c0.035-0.451,0.069-0.915,0.092-1.377
	c0.046-0.706,0.081-1.412,0.115-2.118c0.023-0.312,0.034-0.625,0.046-0.949c0.046-0.741,0.069-1.481,0.104-2.222
	c0.046-1.053,0.081-2.118,0.104-3.182c0.023-0.66,0.035-1.319,0.046-1.991c0.023-0.649,0.023-1.285,0.034-1.933
	c0.012-1.099,0.023-2.211,0.023-3.31C512,252.366,511.919,248.744,511.769,245.145z M309.909,256c0,8.333-1.886,16.214-5.266,23.262
	c-3.356,7.013-8.182,13.17-14.073,18.101c-4.016,3.368-8.541,6.157-13.436,8.24c-6.492,2.778-13.633,4.306-21.133,4.306
	c-2.048,0-4.062-0.115-6.042-0.335c-5.301-0.59-10.37-1.945-15.092-3.97c-12.071-5.138-21.873-14.548-27.509-26.341
	c-3.379-7.049-5.266-14.929-5.266-23.262c0-6.944,1.308-13.587,3.703-19.686c5.278-13.46,15.809-24.269,29.072-29.917
	c6.492-2.778,13.633-4.306,21.133-4.306c7.499,0,14.64,1.528,21.133,4.306c13.263,5.648,23.795,16.457,29.072,29.917
	C308.6,242.413,309.909,249.056,309.909,256z"/>
<linearGradient id="SVGID_2_" gradientUnits="userSpaceOnUse" x1="258.5801" y1="255.7745" x2="-100.2899" y2="614.6445" gradientTransform="matrix(1.0039 0 0 -1.0039 0.1922 516.5609)">
	<stop  offset="0" style="stop-color:#E6E6E6"/>
	<stop  offset="1" style="stop-color:#999999"/>
</linearGradient>
<path style="fill:url(#SVGID_2_);" d="M25.485,346.375C48.191,404.264,92.066,451.506,147.594,478.6
	c32.741,15.971,69.532,24.94,108.406,24.94s75.666-8.969,108.406-24.94c55.529-27.093,99.402-74.335,122.109-132.225
	C497.51,318.379,503.54,287.896,503.54,256c0-38.238-8.668-74.462-24.165-106.798C455.256,98.823,414.588,57.877,364.406,33.4
	c-19.698-9.618-40.854-16.689-63.062-20.786C286.646,9.884,271.486,8.46,256,8.46c-38.875,0-75.666,8.969-108.406,24.94
	c-20.138,9.825-38.735,22.301-55.355,36.976c-24.801,21.885-45.17,48.666-59.614,78.826C17.128,181.538,8.46,217.762,8.46,256
	C8.46,287.896,14.49,318.38,25.485,346.375z M202.091,256c0-8.333,1.886-16.214,5.266-23.262c3.356-7.013,8.182-13.17,14.073-18.101
	c4.016-3.368,8.541-6.157,13.436-8.24c6.492-2.778,13.633-4.306,21.133-4.306c2.048,0,4.062,0.115,6.042,0.335
	c5.301,0.59,10.37,1.945,15.092,3.969c12.071,5.138,21.873,14.548,27.509,26.341c3.379,7.049,5.266,14.929,5.266,23.262
	c0,6.944-1.308,13.587-3.703,19.686c-5.278,13.46-15.809,24.269-29.072,29.917c-6.492,2.778-13.633,4.306-21.133,4.306
	s-14.64-1.528-21.133-4.306c-13.263-5.648-23.795-16.457-29.072-29.917C203.4,269.587,202.091,262.944,202.091,256z"/>
<linearGradient id="SVGID_3_" gradientUnits="userSpaceOnUse" x1="207.6986" y1="411.7638" x2="320.0686" y2="411.7137" gradientTransform="matrix(1.0039 0 0 -1.0039 0.1922 516.5609)">
	<stop  offset="0" style="stop-color:#E6E6E6;stop-opacity:0"/>
	<stop  offset="0.413" style="stop-color:#E6E6E6"/>
	<stop  offset="1" style="stop-color:#E6E6E6;stop-opacity:0"/>
</linearGradient>
<path style="fill:url(#SVGID_3_);" d="M368.214,25.855l-3.808,7.545l-60.261,119.448l-27.012,53.549
	c-6.492-2.778-13.633-4.306-21.133-4.306c-7.499,0-14.64,1.528-21.133,4.306l-27.012-53.549L147.594,33.4l-3.808-7.545
	c2.118-1.03,4.248-2.037,6.4-3.021c1.076-0.486,2.152-0.972,3.241-1.447c0.023,0,0.046-0.012,0.069-0.035
	c2.141-0.926,4.294-1.84,6.469-2.72c2.199-0.891,4.409-1.747,6.643-2.581c4.363-1.631,8.784-3.136,13.263-4.537
	c0.081-0.023,0.174-0.046,0.266-0.081c2.28-0.706,4.572-1.377,6.886-2.025c2.315-0.648,4.629-1.262,6.967-1.84
	c4.467-1.111,8.992-2.106,13.552-2.986c1.585-0.301,3.171-0.59,4.769-0.856c0.938-0.174,1.875-0.324,2.812-0.475
	c0.139-0.023,0.278-0.046,0.417-0.069c0.903-0.139,1.817-0.278,2.732-0.417c2.65-0.394,5.301-0.741,7.985-1.053
	c2.257-0.266,4.525-0.498,6.805-0.695c1.076-0.104,2.164-0.185,3.252-0.266c0.915-0.081,1.84-0.139,2.755-0.197
	c0.266-0.023,0.532-0.035,0.798-0.058c0.879-0.046,1.748-0.104,2.627-0.139c0.926-0.057,1.863-0.104,2.801-0.139
	c0.706-0.023,1.412-0.058,2.118-0.081c0.938-0.023,1.875-0.057,2.812-0.069c0.821-0.023,1.643-0.034,2.465-0.046
	C253.789,0.012,254.901,0,256,0c1.099,0,2.211,0.012,3.31,0.023c0.822,0.012,1.643,0.023,2.465,0.046
	c0.938,0.012,1.875,0.046,2.812,0.069c0.706,0.023,1.411,0.058,2.118,0.081c0.938,0.035,1.875,0.081,2.801,0.139
	c0.879,0.035,1.748,0.092,2.627,0.139c0.266,0.023,0.532,0.035,0.798,0.058c0.915,0.058,1.84,0.115,2.755,0.197
	c1.088,0.081,2.176,0.162,3.252,0.266c2.28,0.197,4.549,0.429,6.805,0.695c2.685,0.312,5.335,0.66,7.985,1.053
	c0.915,0.139,1.828,0.278,2.732,0.417c0.139,0.023,0.278,0.046,0.417,0.069c0.938,0.151,1.875,0.301,2.812,0.475
	c1.597,0.266,3.182,0.555,4.769,0.856c4.56,0.879,9.085,1.874,13.552,2.986c2.338,0.578,4.652,1.193,6.967,1.84
	c2.315,0.649,4.606,1.319,6.886,2.025c0.092,0.035,0.185,0.058,0.266,0.081c4.478,1.4,8.9,2.905,13.263,4.537
	c2.234,0.833,4.444,1.69,6.643,2.581c2.175,0.879,4.328,1.794,6.469,2.72c0.023,0.023,0.046,0.035,0.069,0.035
	c1.088,0.475,2.164,0.961,3.241,1.447C363.967,23.818,366.096,24.825,368.214,25.855z"/>
<linearGradient id="SVGID_4_" gradientUnits="userSpaceOnUse" x1="223.7086" y1="107.339" x2="302.0086" y2="107.339" gradientTransform="matrix(1.0039 0 0 -1.0039 0.1922 516.5609)">
	<stop  offset="0" style="stop-color:#E6E6E6;stop-opacity:0"/>
	<stop  offset="0.413" style="stop-color:#FFFFFF"/>
	<stop  offset="1" style="stop-color:#E6E6E6;stop-opacity:0"/>
</linearGradient>
<path style="fill:url(#SVGID_4_);" d="M368.214,486.145c-2.118,1.03-4.248,2.037-6.4,3.021c-1.076,0.486-2.152,0.972-3.241,1.447
	c-0.601,0.255-1.215,0.521-1.817,0.787c-0.475,0.209-0.961,0.417-1.447,0.613c-1.088,0.452-2.175,0.902-3.276,1.354
	c-2.199,0.891-4.409,1.747-6.643,2.581c-4.363,1.631-8.784,3.136-13.263,4.537c-0.081,0.023-0.174,0.046-0.266,0.081
	c-2.28,0.706-4.572,1.377-6.886,2.025c-2.315,0.648-4.629,1.261-6.967,1.84c-4.467,1.111-8.992,2.106-13.552,2.986
	c-1.585,0.301-3.171,0.59-4.769,0.856c-0.938,0.174-1.875,0.324-2.812,0.475c-0.139,0.023-0.278,0.046-0.417,0.069
	c-0.902,0.139-1.817,0.278-2.732,0.417c-2.65,0.394-5.301,0.741-7.985,1.053c-2.257,0.266-4.525,0.498-6.805,0.695
	c-1.076,0.104-2.164,0.185-3.252,0.266c-0.915,0.081-1.84,0.139-2.755,0.197c-0.266,0.023-0.532,0.035-0.798,0.058
	c-0.879,0.046-1.748,0.104-2.627,0.139c-0.926,0.057-1.863,0.104-2.801,0.139c-0.706,0.023-1.412,0.058-2.118,0.081
	c-0.938,0.023-1.875,0.057-2.812,0.069c-0.821,0.023-1.643,0.034-2.465,0.046c-1.1,0.011-2.212,0.023-3.311,0.023
	c-1.099,0-2.211-0.012-3.31-0.023c-0.822-0.012-1.643-0.023-2.465-0.046c-0.938-0.012-1.875-0.046-2.812-0.069
	c-0.706-0.023-1.412-0.058-2.118-0.081c-0.938-0.035-1.875-0.081-2.801-0.139c-0.879-0.035-1.748-0.092-2.627-0.139
	c-0.266-0.023-0.532-0.035-0.798-0.058c-0.915-0.058-1.84-0.115-2.755-0.197c-1.088-0.081-2.176-0.163-3.252-0.266
	c-2.28-0.197-4.549-0.429-6.805-0.695c-2.686-0.312-5.335-0.66-7.985-1.053c-0.915-0.139-1.828-0.278-2.732-0.417
	c-0.139-0.023-0.278-0.046-0.417-0.069c-0.938-0.151-1.875-0.301-2.812-0.475c-1.597-0.266-3.182-0.555-4.769-0.856
	c-4.56-0.879-9.084-1.874-13.552-2.986c-2.338-0.578-4.652-1.192-6.967-1.84s-4.606-1.319-6.886-2.025
	c-0.092-0.035-0.185-0.058-0.266-0.081c-4.478-1.4-8.9-2.905-13.263-4.537c-2.234-0.833-4.444-1.69-6.643-2.581
	c-2.176-0.879-4.328-1.794-6.469-2.72c-0.023-0.023-0.046-0.035-0.069-0.035c-1.088-0.475-2.164-0.961-3.241-1.447
	c-2.152-0.984-4.282-1.991-6.4-3.021l3.808-7.545l60.261-119.448l27.012-53.549c4.721,2.025,9.791,3.379,15.092,3.97
	c1.979,0.22,3.993,0.335,6.042,0.335c7.499,0,14.64-1.528,21.133-4.306l27.012,53.549l60.261,119.448L368.214,486.145z"/>
<linearGradient id="SVGID_5_" gradientUnits="userSpaceOnUse" x1="353.4777" y1="139.9149" x2="247.9177" y2="89.7949" gradientTransform="matrix(1.0039 0 0 -1.0039 0.1922 516.5609)">
	<stop  offset="0" style="stop-color:#E6E6E6;stop-opacity:0"/>
	<stop  offset="0.013" style="stop-color:#E7E7E7;stop-opacity:0.027"/>
	<stop  offset="0.196" style="stop-color:#EFEFEF;stop-opacity:0.398"/>
	<stop  offset="0.494" style="stop-color:#F2F2F2"/>
	<stop  offset="1" style="stop-color:#E6E6E6;stop-opacity:0"/>
</linearGradient>
<path style="fill:url(#SVGID_5_);" d="M425.825,448.394c-20.195,17.626-43.388,32.266-69.069,43.006
	c-0.475,0.209-0.961,0.417-1.447,0.613c-9.999,4.12-20.381,7.65-31.109,10.532c-38.863,10.474-78.05,11.388-115.072,4.224
	l1.528-7.384l27.128-131.021l12.176-58.792c1.979,0.22,3.993,0.335,6.042,0.335c7.499,0,14.64-1.528,21.133-4.306
	c4.895-2.083,9.421-4.872,13.436-8.24l39.974,44.638l89.219,99.622l5.648,6.307L425.825,448.394z"/>
<linearGradient id="SVGID_6_" gradientUnits="userSpaceOnUse" x1="103.0826" y1="296.793" x2="103.0826" y2="194.593" gradientTransform="matrix(1.0039 0 0 -1.0039 0.1922 516.5609)">
	<stop  offset="0" style="stop-color:#E6E6E6;stop-opacity:0"/>
	<stop  offset="0.494" style="stop-color:#E6E6E6"/>
	<stop  offset="1" style="stop-color:#E6E6E6;stop-opacity:0"/>
</linearGradient>
<path style="fill:url(#SVGID_6_);" d="M207.358,279.262l-54.07,25.843L32.625,362.798l-7.627,3.645
	c-4.502-9.409-8.449-19.131-11.805-29.13c-0.741-2.223-1.459-4.455-2.141-6.712c-0.335-1.122-0.672-2.245-1.007-3.379
	c-0.972-3.391-1.886-6.806-2.732-10.254c-0.012-0.023-0.012-0.046-0.023-0.069c-0.555-2.28-1.076-4.56-1.574-6.863
	c-0.463-2.188-0.915-4.386-1.319-6.585c-0.069-0.358-0.139-0.729-0.197-1.088c-0.174-0.915-0.335-1.829-0.486-2.743
	c-0.023-0.069-0.035-0.128-0.035-0.197c-0.151-0.845-0.289-1.69-0.429-2.535c-0.486-3.044-0.926-6.111-1.308-9.201
	c-0.104-0.81-0.197-1.631-0.289-2.454c-0.139-1.204-0.266-2.395-0.381-3.599c-0.209-2.014-0.381-4.028-0.532-6.042
	c-0.069-0.833-0.127-1.679-0.174-2.511c-0.035-0.451-0.069-0.915-0.092-1.377c-0.046-0.706-0.081-1.412-0.115-2.118
	c-0.023-0.312-0.035-0.625-0.046-0.949c-0.046-0.741-0.069-1.481-0.104-2.222c-0.046-1.053-0.081-2.118-0.104-3.182
	c-0.023-0.66-0.035-1.319-0.046-1.991c-0.023-0.649-0.023-1.285-0.035-1.933C0.012,258.211,0,257.099,0,256
	c0-3.634,0.081-7.256,0.232-10.855c0.023-0.776,0.058-1.551,0.104-2.315c0.046-1.03,0.104-2.048,0.174-3.079
	c0.012-0.151,0.023-0.301,0.035-0.451c0.058-0.972,0.127-1.956,0.208-2.928c0.046-0.752,0.104-1.505,0.185-2.257
	c0.058-0.798,0.127-1.597,0.208-2.384c0-0.104,0.012-0.197,0.023-0.289c0.092-0.972,0.185-1.933,0.289-2.893
	c0.092-0.903,0.197-1.805,0.301-2.709c0.035-0.324,0.081-0.649,0.115-0.961c0.092-0.775,0.197-1.551,0.301-2.326
	c0.127-0.996,0.255-1.991,0.406-2.986c0.139-0.984,0.289-1.979,0.44-2.963c0.452-2.975,0.961-5.914,1.528-8.842
	c0.741-3.912,1.574-7.777,2.5-11.619c0.232-0.961,0.463-1.922,0.706-2.881c0.475-1.909,0.984-3.808,1.505-5.706
	c0.532-1.897,1.076-3.785,1.643-5.659c0.278-0.938,0.567-1.874,0.868-2.812c0.289-0.926,0.59-1.863,0.891-2.789
	c1.528-4.652,3.182-9.235,4.953-13.761l7.87,3.09l124.516,48.816l55.795,21.873c-2.395,6.099-3.703,12.742-3.703,19.686
	C202.091,264.333,203.979,272.214,207.358,279.262z"/>
<linearGradient id="SVGID_7_" gradientUnits="userSpaceOnUse" x1="406.5346" y1="296.793" x2="406.5346" y2="194.593" gradientTransform="matrix(1.0039 0 0 -1.0039 0.1922 516.5609)">
	<stop  offset="0" style="stop-color:#E6E6E6;stop-opacity:0"/>
	<stop  offset="0.494" style="stop-color:#F2F2F2"/>
	<stop  offset="1" style="stop-color:#E6E6E6;stop-opacity:0"/>
</linearGradient>
<path style="fill:url(#SVGID_7_);" d="M512,256c0,1.099-0.012,2.211-0.023,3.31c-0.012,0.649-0.012,1.285-0.034,1.933
	c-0.012,0.671-0.023,1.331-0.046,1.991c-0.023,1.064-0.058,2.129-0.104,3.182c-0.035,0.741-0.058,1.482-0.104,2.222
	c-0.012,0.324-0.023,0.637-0.046,0.949c-0.035,0.706-0.069,1.411-0.115,2.118c-0.023,0.463-0.058,0.926-0.092,1.377
	c-0.046,0.833-0.104,1.679-0.174,2.511c-0.151,2.014-0.324,4.028-0.532,6.042c-0.115,1.204-0.243,2.395-0.382,3.599
	c-0.092,0.821-0.185,1.643-0.289,2.454c-0.383,3.09-0.821,6.157-1.308,9.201c-0.139,0.845-0.278,1.69-0.429,2.535
	c0,0.069-0.012,0.128-0.035,0.197c-0.151,0.915-0.312,1.829-0.486,2.743c-0.058,0.358-0.128,0.729-0.197,1.088
	c-0.405,2.199-0.856,4.398-1.319,6.585c-0.498,2.303-1.018,4.583-1.574,6.863c-0.012,0.023-0.012,0.046-0.023,0.069
	c-0.845,3.448-1.759,6.863-2.732,10.254c-0.335,1.134-0.672,2.257-1.007,3.379c-0.683,2.257-1.4,4.491-2.141,6.712
	c-3.356,9.999-7.303,19.721-11.805,29.13l-7.627-3.645l-120.662-57.692l-54.07-25.843c3.379-7.049,5.266-14.929,5.266-23.262
	c0-6.944-1.308-13.587-3.703-19.686l55.795-21.873l124.516-48.816l7.87-3.09c1.771,4.525,3.425,9.108,4.953,13.761
	c0.301,0.926,0.601,1.863,0.891,2.789c0.301,0.938,0.59,1.874,0.868,2.812c0.567,1.874,1.111,3.762,1.643,5.659
	c0.521,1.898,1.03,3.797,1.505,5.706c0.243,0.961,0.475,1.922,0.706,2.881c0.926,3.842,1.759,7.708,2.5,11.619
	c0.567,2.928,1.076,5.868,1.528,8.842c0.151,0.984,0.301,1.979,0.44,2.963c0.151,0.995,0.278,1.991,0.406,2.986
	c0.104,0.775,0.208,1.551,0.301,2.326c0.034,0.312,0.081,0.636,0.115,0.961c0.104,0.903,0.209,1.805,0.301,2.709
	c0.104,0.961,0.197,1.922,0.289,2.893c0.012,0.092,0.023,0.185,0.023,0.289c0.081,0.787,0.151,1.585,0.209,2.384
	c0.081,0.752,0.139,1.505,0.185,2.257c0.081,0.972,0.151,1.956,0.208,2.928c0.012,0.151,0.023,0.301,0.035,0.451
	c0.069,1.03,0.128,2.048,0.174,3.079c0.046,0.764,0.081,1.539,0.104,2.315C511.919,248.744,512,252.366,512,256z"/>
<path style="fill:#DDDDDD;" d="M361.999,214.441c-10.682-27.208-31.514-49.302-57.855-61.593
	c-14.617-6.852-30.935-10.671-48.145-10.671s-33.528,3.819-48.145,10.671c-26.341,12.291-47.172,34.384-57.855,61.593
	c-5.046,12.869-7.824,26.896-7.824,41.559c0,17.58,3.993,34.245,11.11,49.105c11.365,23.737,30.715,42.914,54.568,54.047
	c9.352,4.386,19.397,7.522,29.928,9.212c5.925,0.961,12.013,1.459,18.216,1.459c17.209,0,33.528-3.819,48.145-10.671
	c9.605-4.478,18.482-10.265,26.398-17.151c11.747-10.173,21.388-22.719,28.169-36.895c7.118-14.86,11.11-31.525,11.11-49.105
	C369.823,241.337,367.045,227.31,361.999,214.441z M290.569,297.363c-4.016,3.368-8.541,6.157-13.436,8.24
	c-6.492,2.778-13.633,4.306-21.133,4.306c-2.048,0-4.062-0.115-6.042-0.335c-5.301-0.59-10.369-1.945-15.092-3.97
	c-12.071-5.138-21.873-14.548-27.509-26.341c-3.379-7.049-5.266-14.929-5.266-23.262c0-6.944,1.308-13.587,3.703-19.686
	c5.278-13.46,15.809-24.269,29.072-29.917c6.492-2.778,13.633-4.306,21.133-4.306c7.499,0,14.64,1.528,21.133,4.306
	c13.263,5.648,23.795,16.457,29.072,29.917c2.395,6.099,3.703,12.742,3.703,19.686c0,8.333-1.886,16.214-5.266,23.262
	C301.286,286.275,296.46,292.432,290.569,297.363z"/>
<g>
</g>
<g>
</g>
<g>
</g>
<g>
</g>
<g>
</g>
<g>
</g>
<g>
</g>
<g>
</g>
<g>
</g>
<g>
</g>
<g>
</g>
<g>
</g>
<g>
</g>
<g>
</g>
<g>
</g>
</svg>
