<svg xmlns="http://www.w3.org/2000/svg" xmlns:xlink="http://www.w3.org/1999/xlink" width="207" height="84" viewBox="0 0 207 84"><defs><clipPath id="a"><rect width="207" height="84" transform="translate(0 0)" fill="#fff"/></clipPath></defs><g transform="translate(0.344 -0.074)"><g transform="translate(-0.344 0.074)" clip-path="url(#a)"><g transform="translate(2.412 2.785)"><path d="M799.63,484.886a26.054,26.054,0,0,1-14.173-14.173,26.26,26.26,0,0,1,0-19.456,24.613,24.613,0,0,1,5.669-8.5,25.885,25.885,0,0,1,8.5-5.67,26.259,26.259,0,0,1,19.456,0,24.628,24.628,0,0,1,8.472,5.637l.032-.032a25.9,25.9,0,0,1,5.669,8.5,26.976,26.976,0,0,1,1.868,9.792,25.808,25.808,0,0,1-1.868,9.664,24.638,24.638,0,0,1-5.669,8.5,25.915,25.915,0,0,1-8.5,5.669,25.2,25.2,0,0,1-9.728,1.932A26.367,26.367,0,0,1,799.63,484.886Zm2.191-5.411a19.916,19.916,0,0,0,15.075,0,21.643,21.643,0,0,0,6.636-4.381,19.236,19.236,0,0,0,4.381-6.636,20.821,20.821,0,0,0,1.417-7.474,20.141,20.141,0,0,0-1.481-7.537,21.626,21.626,0,0,0-4.349-6.6l-.032.032a20.616,20.616,0,0,0-6.571-4.381,19.917,19.917,0,0,0-15.075,0,21.633,21.633,0,0,0-6.636,4.381,19.236,19.236,0,0,0-4.381,6.636,20.821,20.821,0,0,0-1.417,7.473,20.143,20.143,0,0,0,1.482,7.538,21.624,21.624,0,0,0,4.349,6.6l.032-.032A20.609,20.609,0,0,0,801.821,479.475Z" transform="translate(-783.588 -434.882)" fill="#fff"/><rect width="31" height="5" transform="translate(171.588 0.215)" fill="#fff"/><rect width="31" height="6" transform="translate(171.588 23.215)" fill="#fff"/><path d="M824.047,486.3V449.245L806.91,466.524v.131l-.065-.065-.065.065v-.131l-18.039-18.188v20.574h-5.153V435.215l23.257,23.257L830.1,435.215V486.3Z" transform="translate(-725.607 -434.431)" fill="#fff"/><path d="M158.856,56.022H152.8V18.4l6.056-5.8V56.022" transform="translate(-54.36 -4.149)" fill="#fff"/><path d="M90,8.624l23.322,23.515V24.022L90,.7" transform="translate(-32.018 0.084)" fill="#fff"/><g transform="translate(114.675 0.759)"><path d="M668.913,485.545V434.456l23.257,23.257,23.257-23.257v33.759h-5.154V447.578l-18.039,18.188v.13l-.064-.065-.064.065v-.13l-17.137-17.279v37.058Z" transform="translate(-668.913 -434.457)" fill="#fff"/></g><g transform="translate(6.765 63.466)"><path d="M67.914,174h-1.8L64.5,187.336h2.062l1.16-9.535,3.93,7.989h1.739l3.93-7.989,1.16,9.535h2.062L78.8,174H77l-4.51,9.47Z" transform="translate(-64.176 -173.997)" fill="#fff" stroke="#fff" stroke-width="1"/><path d="M157.292,182.7a2.721,2.721,0,0,1-.838,2.062,2.881,2.881,0,0,1-2,.773,3.039,3.039,0,0,1-2.062-.773,2.721,2.721,0,0,1-.837-2.062V174H149.5v8.7a4.481,4.481,0,0,0,1.417,3.479,5.232,5.232,0,0,0,7.022,0,4.481,4.481,0,0,0,1.417-3.479V174h-2.062v8.7Z" transform="translate(-97.168 -173.997)" fill="#fff" stroke="#fff" stroke-width="1"/><path d="M373.55,183.726a4.155,4.155,0,0,1-3.479,1.675,4.331,4.331,0,0,1-3.221-1.353,4.411,4.411,0,0,1-1.288-3.35,4.955,4.955,0,0,1,1.288-3.35,4.391,4.391,0,0,1,3.221-1.417,4.469,4.469,0,0,1,3.479,1.611l1.546-1.224A6.322,6.322,0,0,0,370.071,174a6.587,6.587,0,0,0-4.638,1.933,6.738,6.738,0,0,0-1.933,4.7,6.47,6.47,0,0,0,1.933,4.7,6.088,6.088,0,0,0,4.638,1.933,6.024,6.024,0,0,0,5.025-2.384Z" transform="translate(-183.176 -173.995)" fill="#fff" stroke="#fff" stroke-width="1"/><path d="M301.562,187.336V174H299.5v13.336Z" transform="translate(-157.176 -173.997)" fill="#fff" stroke="#fff" stroke-width="1"/><path d="M225.5,183.6a3.738,3.738,0,0,0,1.353,2.835,4.894,4.894,0,0,0,3.35,1.224,5.086,5.086,0,0,0,3.157-.966,3.5,3.5,0,0,0,1.417-2.577c.193-1.933-.966-3.414-3.608-4.123l-1.675-.451c-1.16-.322-1.8-.9-1.8-1.739a2.083,2.083,0,0,1,2.319-1.868c1.417,0,2.319.773,2.319,2h2.062a3.422,3.422,0,0,0-1.224-2.835,4.77,4.77,0,0,0-3.092-1.1,4.9,4.9,0,0,0-3.092,1.1,3.419,3.419,0,0,0-1.288,2.706c0,1.8,1.1,2.964,3.286,3.608l1.675.451c1.482.322,2.19,1.031,2.126,2.19a2.245,2.245,0,0,1-2.513,1.8,2.752,2.752,0,0,1-1.868-.644,2.246,2.246,0,0,1-.773-1.546H225.5Z" transform="translate(-128.176 -173.997)" fill="#fff" stroke="#fff" stroke-width="1"/></g><rect width="31" height="5" transform="translate(171.588 46.215)" fill="#fff"/></g></g></g></svg>