<svg xmlns="http://www.w3.org/2000/svg" xmlns:xlink="http://www.w3.org/1999/xlink" width="207" height="84" viewBox="0 0 207 84"><defs><clipPath id="a"><rect width="207" height="84" transform="translate(0 0)"/></clipPath></defs><g transform="translate(0.344 -0.074)"><g transform="translate(-0.344 0.074)" clip-path="url(#a)"><g transform="translate(2.412 2.785)"><path d="M7.538,44h0a25.9,25.9,0,0,1-5.669-8.5,26.261,26.261,0,0,1,0-19.456,24.627,24.627,0,0,1,5.669-8.5,25.9,25.9,0,0,1,8.5-5.669,26.261,26.261,0,0,1,19.456,0A24.627,24.627,0,0,1,44,7.538l-4.123,4.123h0A20.6,20.6,0,0,0,33.307,7.28a19.913,19.913,0,0,0-15.075,0A21.626,21.626,0,0,0,11.6,11.661,19.234,19.234,0,0,0,7.216,18.3,20.819,20.819,0,0,0,5.8,25.77,20.145,20.145,0,0,0,7.28,33.307a21.626,21.626,0,0,0,4.381,6.636Z" transform="translate(0 0.333)" fill="#81e5de" opacity="0.703"/><rect width="31" height="5" transform="translate(171.588 0.215)" fill="#f183a8"/><path d="M11.7,48.129h0l4.123-4.123h0a20.6,20.6,0,0,0,6.571,4.381,19.913,19.913,0,0,0,15.075,0,21.626,21.626,0,0,0,6.636-4.381,19.234,19.234,0,0,0,4.381-6.636A20.819,20.819,0,0,0,49.9,29.9a20.145,20.145,0,0,0-1.482-7.538,21.626,21.626,0,0,0-4.381-6.636L48.164,11.6a25.9,25.9,0,0,1,5.669,8.5A26.978,26.978,0,0,1,55.7,29.9a25.8,25.8,0,0,1-1.868,9.664,24.627,24.627,0,0,1-5.669,8.5,25.9,25.9,0,0,1-8.5,5.669,25.2,25.2,0,0,1-9.728,1.933A26.387,26.387,0,0,1,20.2,53.8,25.9,25.9,0,0,1,11.7,48.129Z" transform="translate(-4.162 -3.793)" fill="#00ccbc"/><rect width="31" height="6" transform="translate(171.588 23.215)" fill="#e40551"/><path d="M90,12.4l5.154,5.476v20.68H90Z" transform="translate(-32.018 -4.078)" fill="#ec4f84" opacity="0.7"/><path d="M158.856,56.022H152.8V18.4l6.056-5.8V56.022" transform="translate(-54.36 -4.149)" fill="#e40551"/><path d="M90,8.624l23.322,23.515V24.022L90,.7" transform="translate(-32.018 0.084)" fill="#e40551"/><path d="M149.322,8.624,126,32.139V24.022L149.322.7" transform="translate(-44.825 0.084)" fill="#e40551" opacity="0.7"/><path d="M158.856,56.022H152.8V18.4l6.056-5.8V56.022" transform="translate(-54.36 -4.149)" fill="#e40551"/><path d="M90,8.624l23.322,23.515V24.022L90,.7" transform="translate(-32.018 0.084)" fill="#e40551"/><g transform="translate(114.675 0.759)"><path d="M69.354,11.8,64.2,17.276v20.68h5.154Z" transform="translate(-22.84 -4.198)" fill="#00ccbc" opacity="0.7"/><path d="M0,55.358H6.056V17.8L0,12V55.358" transform="translate(0 -4.269)" fill="#00ccbc"/><path d="M59.322,7.924,36,31.439V23.322L59.322,0" transform="translate(-12.807)" fill="#00ccbc"/><path d="M0,7.924,23.322,31.439V23.322L0,0" fill="#00ccbc" opacity="0.7"/></g><g transform="translate(6.765 63.466)"><path d="M67.914,174h-1.8L64.5,187.336h2.062l1.16-9.535,3.93,7.989h1.739l3.93-7.989,1.16,9.535h2.062L78.8,174H77l-4.51,9.47Z" transform="translate(-64.176 -173.997)" fill="#b5adad" stroke="#b5adad" stroke-width="1"/><path d="M157.292,182.7a2.721,2.721,0,0,1-.838,2.062,2.881,2.881,0,0,1-2,.773,3.039,3.039,0,0,1-2.062-.773,2.721,2.721,0,0,1-.837-2.062V174H149.5v8.7a4.481,4.481,0,0,0,1.417,3.479,5.232,5.232,0,0,0,7.022,0,4.481,4.481,0,0,0,1.417-3.479V174h-2.062v8.7Z" transform="translate(-97.168 -173.997)" fill="#b5adad" stroke="#b5adad" stroke-width="1"/><path d="M373.55,183.726a4.155,4.155,0,0,1-3.479,1.675,4.331,4.331,0,0,1-3.221-1.353,4.411,4.411,0,0,1-1.288-3.35,4.955,4.955,0,0,1,1.288-3.35,4.391,4.391,0,0,1,3.221-1.417,4.469,4.469,0,0,1,3.479,1.611l1.546-1.224A6.322,6.322,0,0,0,370.071,174a6.587,6.587,0,0,0-4.638,1.933,6.738,6.738,0,0,0-1.933,4.7,6.47,6.47,0,0,0,1.933,4.7,6.088,6.088,0,0,0,4.638,1.933,6.024,6.024,0,0,0,5.025-2.384Z" transform="translate(-183.176 -173.995)" fill="#b5adad" stroke="#b5adad" stroke-width="1"/><path d="M301.562,187.336V174H299.5v13.336Z" transform="translate(-157.176 -173.997)" fill="#b5adad" stroke="#b5adad" stroke-width="1"/><path d="M225.5,183.6a3.738,3.738,0,0,0,1.353,2.835,4.894,4.894,0,0,0,3.35,1.224,5.086,5.086,0,0,0,3.157-.966,3.5,3.5,0,0,0,1.417-2.577c.193-1.933-.966-3.414-3.608-4.123l-1.675-.451c-1.16-.322-1.8-.9-1.8-1.739a2.083,2.083,0,0,1,2.319-1.868c1.417,0,2.319.773,2.319,2h2.062a3.422,3.422,0,0,0-1.224-2.835,4.77,4.77,0,0,0-3.092-1.1,4.9,4.9,0,0,0-3.092,1.1,3.419,3.419,0,0,0-1.288,2.706c0,1.8,1.1,2.964,3.286,3.608l1.675.451c1.482.322,2.19,1.031,2.126,2.19a2.245,2.245,0,0,1-2.513,1.8,2.752,2.752,0,0,1-1.868-.644,2.246,2.246,0,0,1-.773-1.546H225.5Z" transform="translate(-128.176 -173.997)" fill="#b5adad" stroke="#b5adad" stroke-width="1"/></g><rect width="31" height="5" transform="translate(171.588 46.215)" fill="#ac4067"/></g></g></g></svg>