<svg xmlns="http://www.w3.org/2000/svg" width="30" height="30" viewBox="0 0 30 30"><g transform="translate(-9 -9)"><path d="M51.971,60.8v5.58H50.11V58.94Z" transform="translate(-32.552 -39.574)" fill="#f183a8"/><path d="M104.921,58.94V71.027H103.06V60.8Z" transform="translate(-74.478 -39.614)" fill="#e40551"/><path d="M56.619,52.209V55L50.11,48.49V45.7Z" transform="translate(-32.572 -29.092)" fill="#e40551"/><path d="M87.509,45.7v2.79L81,55v-2.79Z" transform="translate(-57.046 -29.092)" fill="#f183a8"/><path d="M51.261,51.261a14.971,14.971,0,0,1-21.171,0l2.647-2.647A11.228,11.228,0,1,0,48.615,32.736l2.646-2.646A14.971,14.971,0,0,1,51.261,51.261Z" transform="translate(-16.646 -16.646)" fill="#00ccbc"/><path d="M31.91,16.032l2.647-2.647A14.971,14.971,0,1,0,13.385,34.557l2.647-2.647A11.228,11.228,0,1,1,31.911,16.032Z" fill="#80e6de"/></g></svg>