<svg xmlns="http://www.w3.org/2000/svg" width="20" height="17.321" viewBox="0 0 20 17.321"><path d="M581.212,478.3c.152-.216.252-.344.332-.48a10.076,10.076,0,0,1,2.8-3.078,4.549,4.549,0,0,1,3.5-1.009,3.052,3.052,0,0,1,2.667,3.006,15.237,15.237,0,0,1-1.693,7.074,15.612,15.612,0,0,1-5.471,6.72.721.721,0,0,1-.652.007,60.582,60.582,0,0,1-7.444-5.08,14.518,14.518,0,0,1-4.133-5.079,5.519,5.519,0,0,1-.271-4.407,4.331,4.331,0,0,1,6.022-2.182,9.181,9.181,0,0,1,3.837,3.653C580.859,477.695,581.005,477.948,581.212,478.3Zm1.7,11.307a6.727,6.727,0,0,0,.445-.566c.887-1.422,1.816-2.82,2.636-4.279a26.369,26.369,0,0,0,2.592-6.169,5.406,5.406,0,0,0,.234-2.77,1.22,1.22,0,0,0-1.747-.971,2.044,2.044,0,0,0-.711.326,14.533,14.533,0,0,0-1.969,1.833,14.073,14.073,0,0,0-2.652,4.97c-.139.5-.5.6-.879.237a3.238,3.238,0,0,1-.561-.683c-.691-1.176-1.319-2.39-2.052-3.539a36.828,36.828,0,0,0-2.154-2.988,1.53,1.53,0,0,0-1.481-.626,2.347,2.347,0,0,0-1.959,1.662,4.258,4.258,0,0,0,.262,3.167c.951,2.121,2.672,3.592,4.363,5.083,1.417,1.249,2.86,2.468,4.258,3.737a17.94,17.94,0,0,1,1.376,1.576Z" transform="translate(-570.508 -473.29)"/></svg>